# xmcd CD database file
#
# Track frame offsets:
#	150
#	25697
#	69212
#	122531
#	163656
#
# Disc length: 2537 seconds
#
# Revision: 0
# Processed by: cddbd v1.5.1PL0 Copyright (c) Steve Scherf et al.
# Submitted via: CDex 1.51
#
DISCID=3209e705
DTITLE=Les McCann - JazzOpen Stuttgart 2004
DYEAR=2004
DGENRE=Jazz
TTITLE0=Les McCann - Little Blue Volkswagen
TTITLE1=Les McCann - A Little ¾ For God And Company
TTITLE2=Les McCann - Sunny
TTITLE3=Les McCann - Ignominy
TTITLE4=Les McCann - Compared To What
EXTD=YEAR: 2004
EXTT0=
EXTT1=
EXTT2=
EXTT3=
EXTT4=
PLAYORDER=
